<?xml version="1.0" encoding="UTF-8"?>
<svg xmlns="http://www.w3.org/2000/svg" xmlns:xlink="http://www.w3.org/1999/xlink" width="854" height="480" viewBox="0 0 854 480">
<defs>
<g>
<g id="glyph-0-0">
<path d="M 3.9375 0.140625 C 3.28125 0.140625 2.703125 0.0195312 2.203125 -0.21875 C 1.710938 -0.457031 1.328125 -0.84375 1.046875 -1.375 C 0.765625 -1.914062 0.625 -2.640625 0.625 -3.546875 C 0.625 -4.503906 0.769531 -5.253906 1.0625 -5.796875 C 1.351562 -6.347656 1.742188 -6.738281 2.234375 -6.96875 C 2.722656 -7.195312 3.273438 -7.3125 3.890625 -7.3125 C 4.753906 -7.3125 5.410156 -7.175781 5.859375 -6.90625 C 6.304688 -6.632812 6.53125 -6.304688 6.53125 -5.921875 C 6.53125 -5.734375 6.484375 -5.550781 6.390625 -5.375 C 6.296875 -5.207031 6.125 -5.066406 5.875 -4.953125 C 5.625 -4.835938 5.269531 -4.78125 4.8125 -4.78125 C 4.8125 -5.09375 4.785156 -5.378906 4.734375 -5.640625 C 4.679688 -5.898438 4.59375 -6.109375 4.46875 -6.265625 C 4.34375 -6.421875 4.164062 -6.5 3.9375 -6.5 C 3.6875 -6.5 3.460938 -6.410156 3.265625 -6.234375 C 3.078125 -6.066406 2.929688 -5.769531 2.828125 -5.34375 C 2.722656 -4.914062 2.671875 -4.320312 2.671875 -3.5625 C 2.671875 -2.664062 2.796875 -1.988281 3.046875 -1.53125 C 3.296875 -1.082031 3.703125 -0.859375 4.265625 -0.859375 C 4.722656 -0.859375 5.117188 -0.960938 5.453125 -1.171875 C 5.796875 -1.390625 6.046875 -1.648438 6.203125 -1.953125 C 6.304688 -1.890625 6.382812 -1.800781 6.4375 -1.6875 C 6.488281 -1.570312 6.515625 -1.453125 6.515625 -1.328125 C 6.515625 -1.109375 6.421875 -0.882812 6.234375 -0.65625 C 6.054688 -0.425781 5.78125 -0.234375 5.40625 -0.078125 C 5.03125 0.0664062 4.539062 0.140625 3.9375 0.140625 Z "/>
</g>
<g id="glyph-0-1">
<path d="M 4.0625 0.140625 C 3 0.140625 2.160156 -0.164062 1.546875 -0.78125 C 0.929688 -1.40625 0.625 -2.34375 0.625 -3.59375 C 0.625 -4.851562 0.914062 -5.785156 1.5 -6.390625 C 2.09375 -7.003906 2.960938 -7.3125 4.109375 -7.3125 C 5.171875 -7.3125 6.007812 -7.003906 6.625 -6.390625 C 7.238281 -5.785156 7.546875 -4.851562 7.546875 -3.59375 C 7.546875 -2.34375 7.25 -1.40625 6.65625 -0.78125 C 6.0625 -0.164062 5.195312 0.140625 4.0625 0.140625 Z M 4.09375 -0.703125 C 4.601562 -0.703125 4.960938 -0.945312 5.171875 -1.4375 C 5.378906 -1.9375 5.484375 -2.65625 5.484375 -3.59375 C 5.484375 -4.550781 5.375 -5.269531 5.15625 -5.75 C 4.945312 -6.226562 4.585938 -6.46875 4.078125 -6.46875 C 3.566406 -6.46875 3.207031 -6.226562 3 -5.75 C 2.789062 -5.269531 2.6875 -4.550781 2.6875 -3.59375 C 2.6875 -2.65625 2.789062 -1.9375 3 -1.4375 C 3.207031 -0.945312 3.570312 -0.703125 4.09375 -0.703125 Z "/>
</g>
<g id="glyph-0-2">
<path d="M 0.265625 0 L 0.265625 -0.703125 L 0.296875 -0.703125 C 0.597656 -0.703125 0.84375 -0.753906 1.03125 -0.859375 C 1.226562 -0.972656 1.328125 -1.226562 1.328125 -1.625 L 1.328125 -5.578125 C 1.328125 -5.941406 1.238281 -6.175781 1.0625 -6.28125 C 0.894531 -6.382812 0.664062 -6.4375 0.375 -6.4375 L 0.328125 -6.4375 L 0.328125 -7.140625 L 3.125 -7.140625 L 3.3125 -6.203125 L 3.375 -6.203125 C 3.550781 -6.535156 3.742188 -6.78125 3.953125 -6.9375 C 4.160156 -7.09375 4.382812 -7.191406 4.625 -7.234375 C 4.875 -7.285156 5.132812 -7.3125 5.40625 -7.3125 C 6.09375 -7.3125 6.628906 -7.109375 7.015625 -6.703125 C 7.410156 -6.296875 7.609375 -5.644531 7.609375 -4.75 L 7.609375 -1.65625 C 7.609375 -1.25 7.679688 -0.988281 7.828125 -0.875 C 7.972656 -0.757812 8.195312 -0.703125 8.5 -0.703125 L 8.546875 -0.703125 L 8.546875 0 L 5.578125 0 L 5.578125 -4.390625 C 5.578125 -4.960938 5.5 -5.40625 5.34375 -5.71875 C 5.1875 -6.03125 4.910156 -6.1875 4.515625 -6.1875 C 4.222656 -6.1875 3.992188 -6.085938 3.828125 -5.890625 C 3.660156 -5.703125 3.539062 -5.453125 3.46875 -5.140625 C 3.394531 -4.828125 3.359375 -4.488281 3.359375 -4.125 L 3.359375 -1.578125 C 3.359375 -1.203125 3.441406 -0.960938 3.609375 -0.859375 C 3.785156 -0.753906 4.019531 -0.703125 4.3125 -0.703125 L 4.359375 -0.703125 L 4.359375 0 Z "/>
</g>
<g id="glyph-0-3">
<path d="M 4.078125 0.140625 C 2.953125 0.140625 2.09375 -0.179688 1.5 -0.828125 C 0.914062 -1.472656 0.625 -2.375 0.625 -3.53125 C 0.625 -4.78125 0.910156 -5.722656 1.484375 -6.359375 C 2.066406 -6.992188 2.882812 -7.3125 3.9375 -7.3125 C 4.90625 -7.3125 5.664062 -7.039062 6.21875 -6.5 C 6.769531 -5.957031 7.046875 -5.160156 7.046875 -4.109375 L 7.046875 -3.421875 L 2.671875 -3.421875 C 2.703125 -2.535156 2.867188 -1.882812 3.171875 -1.46875 C 3.484375 -1.0625 3.914062 -0.859375 4.46875 -0.859375 C 4.925781 -0.859375 5.316406 -0.960938 5.640625 -1.171875 C 5.960938 -1.390625 6.195312 -1.648438 6.34375 -1.953125 C 6.582031 -1.816406 6.703125 -1.597656 6.703125 -1.296875 C 6.703125 -0.910156 6.488281 -0.570312 6.0625 -0.28125 C 5.632812 0 4.972656 0.140625 4.078125 0.140625 Z M 5.015625 -4.28125 C 5.015625 -4.957031 4.929688 -5.488281 4.765625 -5.875 C 4.609375 -6.257812 4.335938 -6.453125 3.953125 -6.453125 C 3.585938 -6.453125 3.289062 -6.265625 3.0625 -5.890625 C 2.84375 -5.523438 2.722656 -4.988281 2.703125 -4.28125 Z "/>
</g>
<g id="glyph-0-4">
<path d="M 3.234375 0.140625 C 2.640625 0.140625 2.164062 -0.015625 1.8125 -0.328125 C 1.457031 -0.640625 1.28125 -1.1875 1.28125 -1.96875 L 1.28125 -6.234375 L 0.28125 -6.234375 L 0.28125 -6.921875 C 0.5625 -6.921875 0.816406 -6.976562 1.046875 -7.09375 C 1.273438 -7.207031 1.457031 -7.335938 1.59375 -7.484375 C 1.863281 -7.773438 2.066406 -8.210938 2.203125 -8.796875 L 3.3125 -8.796875 L 3.3125 -7.140625 L 5.015625 -7.140625 L 5.015625 -6.234375 L 3.3125 -6.234375 L 3.3125 -2.109375 C 3.3125 -1.703125 3.378906 -1.40625 3.515625 -1.21875 C 3.648438 -1.039062 3.875 -0.953125 4.1875 -0.953125 C 4.363281 -0.953125 4.53125 -0.960938 4.6875 -0.984375 C 4.84375 -1.003906 4.988281 -1.03125 5.125 -1.0625 L 5.125 -0.203125 C 4.988281 -0.140625 4.753906 -0.0664062 4.421875 0.015625 C 4.097656 0.0976562 3.703125 0.140625 3.234375 0.140625 Z "/>
</g>
</g>
</defs>
<g fill="rgb(75.686275%, 37.254902%, 23.529412%)" fill-opacity="1">
<use xlink:href="#glyph-0-0" x="30" y="34.25293"/>
<use xlink:href="#glyph-0-1" x="37" y="34.25293"/>
<use xlink:href="#glyph-0-2" x="45" y="34.25293"/>
<use xlink:href="#glyph-0-2" x="54" y="34.25293"/>
<use xlink:href="#glyph-0-3" x="63" y="34.25293"/>
<use xlink:href="#glyph-0-0" x="71" y="34.25293"/>
<use xlink:href="#glyph-0-4" x="78" y="34.25293"/>
</g>
</svg>
