<?xml version="1.0" encoding="UTF-8"?>
<svg xmlns="http://www.w3.org/2000/svg" xmlns:xlink="http://www.w3.org/1999/xlink" width="854" height="480" viewBox="0 0 854 480">
<defs>
<g>
<g id="glyph-0-0">
</g>
<g id="glyph-0-1">
<path d="M 1 -5.875 C 0.90625 -6.15625 0.785156 -6.34375 0.640625 -6.4375 C 0.503906 -6.53125 0.304688 -6.578125 0.046875 -6.578125 L 0.015625 -6.578125 L 0.015625 -7.140625 L 3.3125 -7.140625 L 3.3125 -6.578125 L 3.125 -6.578125 C 2.863281 -6.578125 2.664062 -6.539062 2.53125 -6.46875 C 2.394531 -6.394531 2.328125 -6.25 2.328125 -6.03125 C 2.328125 -5.957031 2.335938 -5.863281 2.359375 -5.75 C 2.390625 -5.644531 2.414062 -5.546875 2.4375 -5.453125 L 3.0625 -3.21875 C 3.125 -3 3.179688 -2.757812 3.234375 -2.5 C 3.296875 -2.238281 3.351562 -1.988281 3.40625 -1.75 C 3.457031 -1.519531 3.5 -1.328125 3.53125 -1.171875 L 3.578125 -1.171875 C 3.617188 -1.390625 3.6875 -1.675781 3.78125 -2.03125 C 3.882812 -2.394531 4 -2.742188 4.125 -3.078125 L 5.5 -7.109375 L 6.34375 -7.109375 L 7.671875 -3.15625 C 7.742188 -2.945312 7.820312 -2.710938 7.90625 -2.453125 C 7.988281 -2.203125 8.054688 -1.960938 8.109375 -1.734375 C 8.171875 -1.515625 8.21875 -1.328125 8.25 -1.171875 L 8.296875 -1.171875 C 8.367188 -1.628906 8.539062 -2.28125 8.8125 -3.125 L 9.46875 -5.265625 C 9.507812 -5.378906 9.539062 -5.5 9.5625 -5.625 C 9.582031 -5.757812 9.59375 -5.863281 9.59375 -5.9375 C 9.59375 -6.363281 9.300781 -6.578125 8.71875 -6.578125 L 8.625 -6.578125 L 8.625 -7.140625 L 11.46875 -7.140625 L 11.46875 -6.578125 L 11.296875 -6.578125 C 11.046875 -6.578125 10.847656 -6.515625 10.703125 -6.390625 C 10.566406 -6.265625 10.429688 -5.984375 10.296875 -5.546875 L 8.578125 0 L 7.515625 0 L 5.6875 -5.578125 L 3.796875 0 L 2.75 0 Z "/>
</g>
<g id="glyph-0-2">
<path d="M 2.140625 -8.484375 C 1.929688 -8.484375 1.753906 -8.539062 1.609375 -8.65625 C 1.460938 -8.78125 1.390625 -8.992188 1.390625 -9.296875 C 1.390625 -9.609375 1.460938 -9.820312 1.609375 -9.9375 C 1.753906 -10.0625 1.929688 -10.125 2.140625 -10.125 C 2.347656 -10.125 2.523438 -10.0625 2.671875 -9.9375 C 2.828125 -9.820312 2.90625 -9.609375 2.90625 -9.296875 C 2.90625 -8.992188 2.828125 -8.78125 2.671875 -8.65625 C 2.523438 -8.539062 2.347656 -8.484375 2.140625 -8.484375 Z M 0.3125 0 L 0.3125 -0.5625 L 0.484375 -0.5625 C 0.773438 -0.5625 1.03125 -0.609375 1.25 -0.703125 C 1.46875 -0.804688 1.578125 -1.054688 1.578125 -1.453125 L 1.578125 -5.671875 C 1.578125 -6.066406 1.46875 -6.316406 1.25 -6.421875 C 1.03125 -6.523438 0.773438 -6.578125 0.484375 -6.578125 L 0.4375 -6.578125 L 0.4375 -7.140625 L 2.828125 -7.140625 L 2.828125 -1.515625 C 2.828125 -1.097656 2.929688 -0.832031 3.140625 -0.71875 C 3.359375 -0.613281 3.617188 -0.5625 3.921875 -0.5625 L 4.09375 -0.5625 L 4.09375 0 Z "/>
</g>
<g id="glyph-0-3">
<path d="M 3.203125 0.140625 C 2.523438 0.140625 2.03125 -0.0078125 1.71875 -0.3125 C 1.414062 -0.625 1.265625 -1.164062 1.265625 -1.9375 L 1.265625 -6.390625 L 0.25 -6.390625 L 0.25 -6.921875 C 0.414062 -6.921875 0.59375 -6.953125 0.78125 -7.015625 C 0.976562 -7.085938 1.148438 -7.195312 1.296875 -7.34375 C 1.441406 -7.5 1.5625 -7.691406 1.65625 -7.921875 C 1.757812 -8.160156 1.84375 -8.445312 1.90625 -8.78125 L 2.515625 -8.78125 L 2.515625 -7.140625 L 4.265625 -7.140625 L 4.265625 -6.390625 L 2.515625 -6.390625 L 2.515625 -1.890625 C 2.515625 -1.441406 2.609375 -1.109375 2.796875 -0.890625 C 2.984375 -0.679688 3.226562 -0.578125 3.53125 -0.578125 C 3.6875 -0.578125 3.832031 -0.582031 3.96875 -0.59375 C 4.101562 -0.613281 4.242188 -0.640625 4.390625 -0.671875 L 4.390625 -0.078125 C 4.273438 -0.0234375 4.097656 0.0195312 3.859375 0.0625 C 3.628906 0.113281 3.410156 0.140625 3.203125 0.140625 Z "/>
</g>
<g id="glyph-0-4">
<path d="M 0.234375 0 L 0.234375 -0.5625 L 0.34375 -0.5625 C 0.644531 -0.5625 0.898438 -0.613281 1.109375 -0.71875 C 1.328125 -0.832031 1.4375 -1.097656 1.4375 -1.515625 L 1.4375 -8.65625 C 1.4375 -9.050781 1.328125 -9.300781 1.109375 -9.40625 C 0.890625 -9.507812 0.632812 -9.5625 0.34375 -9.5625 L 0.234375 -9.5625 L 0.234375 -10.125 L 2.6875 -10.125 L 2.6875 -7.203125 C 2.6875 -7.035156 2.679688 -6.863281 2.671875 -6.6875 C 2.671875 -6.519531 2.664062 -6.375 2.65625 -6.25 C 2.644531 -6.125 2.640625 -6.0625 2.640625 -6.0625 L 2.703125 -6.0625 C 3.109375 -6.875 3.765625 -7.28125 4.671875 -7.28125 C 5.429688 -7.28125 6.015625 -7.070312 6.421875 -6.65625 C 6.828125 -6.238281 7.03125 -5.578125 7.03125 -4.671875 L 7.03125 -1.515625 C 7.03125 -1.097656 7.125 -0.832031 7.3125 -0.71875 C 7.5 -0.613281 7.742188 -0.5625 8.046875 -0.5625 L 8.09375 -0.5625 L 8.09375 0 L 5.765625 0 L 5.765625 -4.59375 C 5.765625 -5.175781 5.65625 -5.625 5.4375 -5.9375 C 5.226562 -6.257812 4.851562 -6.421875 4.3125 -6.421875 C 3.757812 -6.421875 3.347656 -6.222656 3.078125 -5.828125 C 2.816406 -5.441406 2.6875 -4.921875 2.6875 -4.265625 L 2.6875 -1.453125 C 2.6875 -1.054688 2.796875 -0.804688 3.015625 -0.703125 C 3.234375 -0.609375 3.488281 -0.5625 3.78125 -0.5625 L 3.828125 -0.5625 L 3.828125 0 Z "/>
</g>
</g>
</defs>
<g fill="rgb(10.196078%, 9.803922%, 8.627451%)" fill-opacity="1">
<use xlink:href="#glyph-0-0" x="30" y="34.25293"/>
<use xlink:href="#glyph-0-0" x="33" y="34.25293"/>
<use xlink:href="#glyph-0-1" x="36" y="34.25293"/>
<use xlink:href="#glyph-0-2" x="47" y="34.25293"/>
<use xlink:href="#glyph-0-3" x="51" y="34.25293"/>
<use xlink:href="#glyph-0-4" x="56" y="34.25293"/>
<use xlink:href="#glyph-0-0" x="64" y="34.25293"/>
<use xlink:href="#glyph-0-0" x="67" y="34.25293"/>
</g>
</svg>
