<?xml version="1.0" encoding="UTF-8"?>
<svg xmlns="http://www.w3.org/2000/svg" xmlns:xlink="http://www.w3.org/1999/xlink" width="854" height="480" viewBox="0 0 854 480">
<defs>
<g>
<g id="glyph-0-0">
<path d="M 2.40625 -2.8125 C 1.90625 -2.8125 1.488281 -2.953125 1.15625 -3.234375 C 0.820312 -3.515625 0.65625 -4.019531 0.65625 -4.75 C 0.65625 -5.476562 0.820312 -5.976562 1.15625 -6.25 C 1.488281 -6.53125 1.90625 -6.671875 2.40625 -6.671875 C 2.738281 -6.671875 3.035156 -6.609375 3.296875 -6.484375 C 3.554688 -6.367188 3.765625 -6.171875 3.921875 -5.890625 C 4.085938 -5.617188 4.171875 -5.238281 4.171875 -4.75 C 4.171875 -4.269531 4.085938 -3.882812 3.921875 -3.59375 C 3.765625 -3.3125 3.554688 -3.109375 3.296875 -2.984375 C 3.035156 -2.867188 2.738281 -2.8125 2.40625 -2.8125 Z "/>
</g>
<g id="glyph-0-1">
</g>
<g id="glyph-0-2">
<path d="M 0.5 0 L 0.5 -0.5625 L 0.6875 -0.5625 C 0.988281 -0.5625 1.242188 -0.613281 1.453125 -0.71875 C 1.660156 -0.832031 1.765625 -1.097656 1.765625 -1.515625 L 1.765625 -8.046875 C 1.765625 -8.441406 1.65625 -8.691406 1.4375 -8.796875 C 1.226562 -8.898438 0.976562 -8.953125 0.6875 -8.953125 L 0.5 -8.953125 L 0.5 -9.515625 L 4.25 -9.515625 C 5.375 -9.515625 6.203125 -9.265625 6.734375 -8.765625 C 7.265625 -8.273438 7.53125 -7.597656 7.53125 -6.734375 C 7.53125 -6.203125 7.414062 -5.707031 7.1875 -5.25 C 6.957031 -4.789062 6.582031 -4.414062 6.0625 -4.125 C 5.539062 -3.84375 4.835938 -3.703125 3.953125 -3.703125 L 3.125 -3.703125 L 3.125 -1.453125 C 3.125 -1.054688 3.226562 -0.804688 3.4375 -0.703125 C 3.65625 -0.609375 3.914062 -0.5625 4.21875 -0.5625 L 4.65625 -0.5625 L 4.65625 0 Z M 3.828125 -4.328125 C 4.628906 -4.328125 5.207031 -4.503906 5.5625 -4.859375 C 5.914062 -5.222656 6.09375 -5.828125 6.09375 -6.671875 C 6.09375 -7.421875 5.9375 -7.972656 5.625 -8.328125 C 5.3125 -8.691406 4.78125 -8.875 4.03125 -8.875 L 3.125 -8.875 L 3.125 -4.328125 Z "/>
</g>
<g id="glyph-0-3">
<path d="M 0.5 2.578125 C 1.101562 2.578125 1.597656 2.457031 1.984375 2.21875 C 2.378906 1.988281 2.695312 1.675781 2.9375 1.28125 C 3.175781 0.882812 3.363281 0.441406 3.5 -0.046875 L 1.046875 -5.875 C 0.921875 -6.15625 0.796875 -6.34375 0.671875 -6.4375 C 0.546875 -6.53125 0.351562 -6.578125 0.09375 -6.578125 L 0.046875 -6.578125 L 0.046875 -7.140625 L 3.25 -7.140625 L 3.25 -6.578125 L 3.21875 -6.578125 C 2.675781 -6.578125 2.40625 -6.363281 2.40625 -5.9375 C 2.40625 -5.789062 2.441406 -5.628906 2.515625 -5.453125 L 3.484375 -3.078125 C 3.578125 -2.867188 3.664062 -2.644531 3.75 -2.40625 C 3.832031 -2.164062 3.910156 -1.929688 3.984375 -1.703125 C 4.054688 -1.484375 4.101562 -1.296875 4.125 -1.140625 C 4.1875 -1.398438 4.269531 -1.664062 4.375 -1.9375 C 4.476562 -2.21875 4.578125 -2.492188 4.671875 -2.765625 L 5.5625 -5.359375 C 5.632812 -5.566406 5.671875 -5.757812 5.671875 -5.9375 C 5.671875 -6.363281 5.378906 -6.578125 4.796875 -6.578125 L 4.765625 -6.578125 L 4.765625 -7.140625 L 7.53125 -7.140625 L 7.53125 -6.578125 L 7.484375 -6.578125 C 7.234375 -6.578125 7.039062 -6.507812 6.90625 -6.375 C 6.769531 -6.25 6.628906 -5.972656 6.484375 -5.546875 L 4.453125 0.046875 C 4.222656 0.703125 4 1.234375 3.78125 1.640625 C 3.570312 2.046875 3.332031 2.363281 3.0625 2.59375 C 2.800781 2.820312 2.472656 2.976562 2.078125 3.0625 C 1.691406 3.15625 1.207031 3.203125 0.625 3.203125 L 0.5 3.203125 Z "/>
</g>
<g id="glyph-0-4">
<path d="M 4.8125 0.140625 C 3.925781 0.140625 3.179688 -0.0625 2.578125 -0.46875 C 1.972656 -0.882812 1.519531 -1.457031 1.21875 -2.1875 C 0.914062 -2.925781 0.765625 -3.785156 0.765625 -4.765625 C 0.765625 -5.722656 0.925781 -6.566406 1.25 -7.296875 C 1.570312 -8.035156 2.050781 -8.613281 2.6875 -9.03125 C 3.320312 -9.445312 4.101562 -9.65625 5.03125 -9.65625 C 5.9375 -9.65625 6.613281 -9.507812 7.0625 -9.21875 C 7.507812 -8.9375 7.734375 -8.582031 7.734375 -8.15625 C 7.734375 -7.875 7.617188 -7.644531 7.390625 -7.46875 C 7.171875 -7.300781 6.898438 -7.21875 6.578125 -7.21875 C 6.578125 -7.5 6.523438 -7.769531 6.421875 -8.03125 C 6.328125 -8.289062 6.164062 -8.503906 5.9375 -8.671875 C 5.707031 -8.847656 5.398438 -8.9375 5.015625 -8.9375 C 4.003906 -8.9375 3.285156 -8.570312 2.859375 -7.84375 C 2.441406 -7.125 2.234375 -6.097656 2.234375 -4.765625 C 2.234375 -3.972656 2.328125 -3.273438 2.515625 -2.671875 C 2.710938 -2.066406 3.015625 -1.59375 3.421875 -1.25 C 3.828125 -0.914062 4.359375 -0.75 5.015625 -0.75 C 5.660156 -0.75 6.164062 -0.859375 6.53125 -1.078125 C 6.90625 -1.304688 7.203125 -1.570312 7.421875 -1.875 C 7.492188 -1.832031 7.550781 -1.769531 7.59375 -1.6875 C 7.644531 -1.601562 7.671875 -1.492188 7.671875 -1.359375 C 7.671875 -1.140625 7.566406 -0.910156 7.359375 -0.671875 C 7.160156 -0.441406 6.847656 -0.25 6.421875 -0.09375 C 6.003906 0.0625 5.46875 0.140625 4.8125 0.140625 Z "/>
</g>
<g id="glyph-0-5">
<path d="M 3.828125 0.140625 C 2.867188 0.140625 2.113281 -0.164062 1.5625 -0.78125 C 1.007812 -1.394531 0.734375 -2.328125 0.734375 -3.578125 C 0.734375 -4.828125 0.992188 -5.753906 1.515625 -6.359375 C 2.046875 -6.972656 2.828125 -7.28125 3.859375 -7.28125 C 4.816406 -7.28125 5.570312 -6.972656 6.125 -6.359375 C 6.675781 -5.753906 6.953125 -4.828125 6.953125 -3.578125 C 6.953125 -2.328125 6.6875 -1.394531 6.15625 -0.78125 C 5.632812 -0.164062 4.859375 0.140625 3.828125 0.140625 Z M 3.859375 -0.5625 C 4.515625 -0.5625 4.976562 -0.816406 5.25 -1.328125 C 5.53125 -1.835938 5.671875 -2.585938 5.671875 -3.578125 C 5.671875 -4.578125 5.53125 -5.328125 5.25 -5.828125 C 4.976562 -6.328125 4.507812 -6.578125 3.84375 -6.578125 C 3.175781 -6.578125 2.707031 -6.328125 2.4375 -5.828125 C 2.164062 -5.328125 2.03125 -4.578125 2.03125 -3.578125 C 2.03125 -2.585938 2.164062 -1.835938 2.4375 -1.328125 C 2.71875 -0.816406 3.191406 -0.5625 3.859375 -0.5625 Z "/>
</g>
<g id="glyph-0-6">
<path d="M 0.375 0 L 0.375 -0.5625 L 0.484375 -0.5625 C 0.785156 -0.5625 1.039062 -0.613281 1.25 -0.71875 C 1.46875 -0.832031 1.578125 -1.097656 1.578125 -1.515625 L 1.578125 -5.671875 C 1.578125 -6.066406 1.472656 -6.316406 1.265625 -6.421875 C 1.054688 -6.523438 0.800781 -6.578125 0.5 -6.578125 L 0.4375 -6.578125 L 0.4375 -7.140625 L 2.59375 -7.140625 L 2.765625 -6.0625 L 2.84375 -6.0625 C 3.113281 -6.5625 3.421875 -6.890625 3.765625 -7.046875 C 4.109375 -7.203125 4.492188 -7.28125 4.921875 -7.28125 C 5.617188 -7.28125 6.164062 -7.070312 6.5625 -6.65625 C 6.957031 -6.238281 7.15625 -5.578125 7.15625 -4.671875 L 7.15625 -1.515625 C 7.15625 -1.097656 7.242188 -0.832031 7.421875 -0.71875 C 7.609375 -0.613281 7.851562 -0.5625 8.15625 -0.5625 L 8.21875 -0.5625 L 8.21875 0 L 5.90625 0 L 5.90625 -4.59375 C 5.90625 -5.175781 5.796875 -5.625 5.578125 -5.9375 C 5.359375 -6.257812 4.976562 -6.421875 4.4375 -6.421875 C 4.039062 -6.421875 3.722656 -6.320312 3.484375 -6.125 C 3.242188 -5.925781 3.070312 -5.660156 2.96875 -5.328125 C 2.875 -5.003906 2.828125 -4.648438 2.828125 -4.265625 L 2.828125 -1.453125 C 2.828125 -1.054688 2.929688 -0.804688 3.140625 -0.703125 C 3.347656 -0.609375 3.597656 -0.5625 3.890625 -0.5625 L 3.953125 -0.5625 L 3.953125 0 Z "/>
</g>
<g id="glyph-0-7">
<path d="M 0.171875 0 L 0.171875 -0.5625 L 0.34375 -0.5625 C 0.644531 -0.5625 0.898438 -0.613281 1.109375 -0.71875 C 1.328125 -0.832031 1.4375 -1.097656 1.4375 -1.515625 L 1.4375 -8.65625 C 1.4375 -9.050781 1.328125 -9.300781 1.109375 -9.40625 C 0.890625 -9.507812 0.632812 -9.5625 0.34375 -9.5625 L 0.171875 -9.5625 L 0.171875 -10.125 L 2.6875 -10.125 L 2.6875 -1.515625 C 2.6875 -1.097656 2.789062 -0.832031 3 -0.71875 C 3.21875 -0.613281 3.476562 -0.5625 3.78125 -0.5625 L 3.953125 -0.5625 L 3.953125 0 Z "/>
</g>
<g id="glyph-0-8">
<path d="M 0.375 0 L 0.375 -0.5625 L 0.546875 -0.5625 C 0.847656 -0.5625 1.09375 -0.613281 1.28125 -0.71875 C 1.476562 -0.832031 1.578125 -1.097656 1.578125 -1.515625 L 1.578125 -5.671875 C 1.578125 -6.066406 1.476562 -6.316406 1.28125 -6.421875 C 1.082031 -6.523438 0.835938 -6.578125 0.546875 -6.578125 L 0.5 -6.578125 L 0.5 -7.140625 L 2.59375 -7.140625 L 2.765625 -6.0625 L 2.84375 -6.0625 C 3.101562 -6.5625 3.398438 -6.890625 3.734375 -7.046875 C 4.066406 -7.203125 4.4375 -7.28125 4.84375 -7.28125 C 5.269531 -7.28125 5.65625 -7.1875 6 -7 C 6.351562 -6.820312 6.613281 -6.507812 6.78125 -6.0625 L 6.890625 -6.0625 C 7.160156 -6.5625 7.472656 -6.890625 7.828125 -7.046875 C 8.191406 -7.203125 8.578125 -7.28125 8.984375 -7.28125 C 9.671875 -7.28125 10.203125 -7.070312 10.578125 -6.65625 C 10.960938 -6.238281 11.15625 -5.578125 11.15625 -4.671875 L 11.15625 -1.515625 C 11.15625 -1.097656 11.25 -0.832031 11.4375 -0.71875 C 11.632812 -0.613281 11.882812 -0.5625 12.1875 -0.5625 L 12.21875 -0.5625 L 12.21875 0 L 9.90625 0 L 9.90625 -4.59375 C 9.90625 -5.175781 9.800781 -5.625 9.59375 -5.9375 C 9.382812 -6.257812 9.019531 -6.421875 8.5 -6.421875 C 8.132812 -6.421875 7.84375 -6.328125 7.625 -6.140625 C 7.40625 -5.960938 7.25 -5.722656 7.15625 -5.421875 C 7.070312 -5.117188 7.03125 -4.789062 7.03125 -4.4375 L 7.03125 -1.515625 C 7.03125 -1.097656 7.125 -0.832031 7.3125 -0.71875 C 7.5 -0.613281 7.742188 -0.5625 8.046875 -0.5625 L 8.09375 -0.5625 L 8.09375 0 L 5.765625 0 L 5.765625 -4.59375 C 5.765625 -5.175781 5.660156 -5.625 5.453125 -5.9375 C 5.242188 -6.257812 4.882812 -6.421875 4.375 -6.421875 C 3.988281 -6.421875 3.679688 -6.320312 3.453125 -6.125 C 3.234375 -5.925781 3.070312 -5.660156 2.96875 -5.328125 C 2.875 -5.003906 2.828125 -4.648438 2.828125 -4.265625 L 2.828125 -1.453125 C 2.828125 -1.054688 2.9375 -0.804688 3.15625 -0.703125 C 3.375 -0.609375 3.628906 -0.5625 3.921875 -0.5625 L 3.953125 -0.5625 L 3.953125 0 Z "/>
</g>
<g id="glyph-0-9">
<path d="M 4.734375 0.140625 C 4.210938 0.140625 3.789062 0.03125 3.46875 -0.1875 C 3.144531 -0.40625 2.882812 -0.691406 2.6875 -1.046875 L 2.609375 -1.046875 L 2.375 0 L 0.234375 0 L 0.234375 -0.5625 L 0.34375 -0.5625 C 0.644531 -0.5625 0.898438 -0.613281 1.109375 -0.71875 C 1.328125 -0.832031 1.4375 -1.097656 1.4375 -1.515625 L 1.4375 -8.65625 C 1.4375 -9.050781 1.328125 -9.300781 1.109375 -9.40625 C 0.890625 -9.507812 0.632812 -9.5625 0.34375 -9.5625 L 0.234375 -9.5625 L 0.234375 -10.125 L 2.6875 -10.125 L 2.6875 -7.671875 C 2.6875 -7.523438 2.679688 -7.332031 2.671875 -7.09375 C 2.671875 -6.863281 2.664062 -6.640625 2.65625 -6.421875 C 2.65625 -6.203125 2.648438 -6.039062 2.640625 -5.9375 L 2.6875 -5.9375 C 2.894531 -6.351562 3.15625 -6.679688 3.46875 -6.921875 C 3.789062 -7.160156 4.210938 -7.28125 4.734375 -7.28125 C 5.609375 -7.28125 6.28125 -6.984375 6.75 -6.390625 C 7.21875 -5.796875 7.453125 -4.859375 7.453125 -3.578125 C 7.453125 -2.296875 7.21875 -1.351562 6.75 -0.75 C 6.28125 -0.15625 5.609375 0.140625 4.734375 0.140625 Z M 4.515625 -0.71875 C 5.097656 -0.71875 5.515625 -0.960938 5.765625 -1.453125 C 6.023438 -1.953125 6.15625 -2.664062 6.15625 -3.59375 C 6.15625 -4.550781 6.023438 -5.257812 5.765625 -5.71875 C 5.515625 -6.1875 5.09375 -6.421875 4.5 -6.421875 C 3.8125 -6.421875 3.335938 -6.1875 3.078125 -5.71875 C 2.816406 -5.257812 2.6875 -4.546875 2.6875 -3.578125 C 2.6875 -2.660156 2.816406 -1.953125 3.078125 -1.453125 C 3.335938 -0.960938 3.816406 -0.71875 4.515625 -0.71875 Z "/>
</g>
<g id="glyph-0-10">
<path d="M 2.140625 -8.484375 C 1.929688 -8.484375 1.753906 -8.539062 1.609375 -8.65625 C 1.460938 -8.78125 1.390625 -8.992188 1.390625 -9.296875 C 1.390625 -9.609375 1.460938 -9.820312 1.609375 -9.9375 C 1.753906 -10.0625 1.929688 -10.125 2.140625 -10.125 C 2.347656 -10.125 2.523438 -10.0625 2.671875 -9.9375 C 2.828125 -9.820312 2.90625 -9.609375 2.90625 -9.296875 C 2.90625 -8.992188 2.828125 -8.78125 2.671875 -8.65625 C 2.523438 -8.539062 2.347656 -8.484375 2.140625 -8.484375 Z M 0.3125 0 L 0.3125 -0.5625 L 0.484375 -0.5625 C 0.773438 -0.5625 1.03125 -0.609375 1.25 -0.703125 C 1.46875 -0.804688 1.578125 -1.054688 1.578125 -1.453125 L 1.578125 -5.671875 C 1.578125 -6.066406 1.46875 -6.316406 1.25 -6.421875 C 1.03125 -6.523438 0.773438 -6.578125 0.484375 -6.578125 L 0.4375 -6.578125 L 0.4375 -7.140625 L 2.828125 -7.140625 L 2.828125 -1.515625 C 2.828125 -1.097656 2.929688 -0.832031 3.140625 -0.71875 C 3.359375 -0.613281 3.617188 -0.5625 3.921875 -0.5625 L 4.09375 -0.5625 L 4.09375 0 Z "/>
</g>
<g id="glyph-0-11">
<path d="M 2.734375 0.140625 C 2.140625 0.140625 1.644531 -0.03125 1.25 -0.375 C 0.863281 -0.726562 0.671875 -1.269531 0.671875 -2 C 0.671875 -2.707031 0.921875 -3.226562 1.421875 -3.5625 C 1.921875 -3.90625 2.679688 -4.09375 3.703125 -4.125 L 4.8125 -4.171875 L 4.8125 -4.96875 C 4.8125 -5.289062 4.785156 -5.570312 4.734375 -5.8125 C 4.679688 -6.0625 4.566406 -6.253906 4.390625 -6.390625 C 4.210938 -6.535156 3.941406 -6.609375 3.578125 -6.609375 C 3.234375 -6.609375 2.972656 -6.546875 2.796875 -6.421875 C 2.617188 -6.296875 2.5 -6.125 2.4375 -5.90625 C 2.382812 -5.6875 2.359375 -5.4375 2.359375 -5.15625 C 1.984375 -5.15625 1.695312 -5.21875 1.5 -5.34375 C 1.3125 -5.476562 1.21875 -5.695312 1.21875 -6 C 1.21875 -6.3125 1.328125 -6.5625 1.546875 -6.75 C 1.765625 -6.9375 2.054688 -7.070312 2.421875 -7.15625 C 2.785156 -7.238281 3.1875 -7.28125 3.625 -7.28125 C 4.4375 -7.28125 5.046875 -7.101562 5.453125 -6.75 C 5.859375 -6.40625 6.0625 -5.8125 6.0625 -4.96875 L 6.0625 -1.515625 C 6.0625 -1.140625 6.125 -0.882812 6.25 -0.75 C 6.375 -0.625 6.585938 -0.5625 6.890625 -0.5625 L 6.9375 -0.5625 L 6.9375 0 L 5.125 0 L 4.921875 -1.140625 L 4.8125 -1.140625 C 4.625 -0.890625 4.441406 -0.671875 4.265625 -0.484375 C 4.085938 -0.296875 3.878906 -0.144531 3.640625 -0.03125 C 3.410156 0.0820312 3.109375 0.140625 2.734375 0.140625 Z M 3.03125 -0.6875 C 3.582031 -0.6875 4.015625 -0.851562 4.328125 -1.1875 C 4.648438 -1.519531 4.8125 -1.972656 4.8125 -2.546875 L 4.8125 -3.625 L 3.953125 -3.578125 C 3.203125 -3.546875 2.679688 -3.394531 2.390625 -3.125 C 2.097656 -2.851562 1.953125 -2.457031 1.953125 -1.9375 C 1.953125 -1.101562 2.3125 -0.6875 3.03125 -0.6875 Z "/>
</g>
<g id="glyph-0-12">
<path d="M 0.8125 0 L 0.8125 -0.96875 L 3.03125 -3.546875 C 3.507812 -4.097656 3.882812 -4.570312 4.15625 -4.96875 C 4.4375 -5.375 4.632812 -5.757812 4.75 -6.125 C 4.875 -6.488281 4.9375 -6.878906 4.9375 -7.296875 C 4.9375 -7.796875 4.828125 -8.203125 4.609375 -8.515625 C 4.390625 -8.828125 4.046875 -8.984375 3.578125 -8.984375 C 3.171875 -8.984375 2.859375 -8.890625 2.640625 -8.703125 C 2.429688 -8.515625 2.289062 -8.269531 2.21875 -7.96875 C 2.144531 -7.675781 2.109375 -7.351562 2.109375 -7 C 1.785156 -7 1.507812 -7.054688 1.28125 -7.171875 C 1.0625 -7.296875 0.953125 -7.523438 0.953125 -7.859375 C 0.953125 -8.378906 1.171875 -8.804688 1.609375 -9.140625 C 2.054688 -9.484375 2.710938 -9.65625 3.578125 -9.65625 C 4.421875 -9.65625 5.082031 -9.453125 5.5625 -9.046875 C 6.039062 -8.640625 6.28125 -8.097656 6.28125 -7.421875 C 6.28125 -6.796875 6.082031 -6.1875 5.6875 -5.59375 C 5.300781 -5.007812 4.753906 -4.332031 4.046875 -3.5625 L 1.796875 -1.0625 L 4.875 -1.0625 C 5.28125 -1.0625 5.550781 -1.160156 5.6875 -1.359375 C 5.832031 -1.566406 5.9375 -1.800781 6 -2.0625 L 6.046875 -2.3125 L 6.609375 -2.3125 L 6.546875 0 Z "/>
</g>
<g id="glyph-0-13">
<path d="M 3.734375 0.140625 C 3.003906 0.140625 2.40625 -0.0625 1.9375 -0.46875 C 1.476562 -0.882812 1.140625 -1.460938 0.921875 -2.203125 C 0.703125 -2.941406 0.59375 -3.800781 0.59375 -4.78125 C 0.59375 -5.769531 0.703125 -6.628906 0.921875 -7.359375 C 1.140625 -8.085938 1.476562 -8.648438 1.9375 -9.046875 C 2.40625 -9.453125 3.007812 -9.65625 3.75 -9.65625 C 4.4375 -9.65625 5.007812 -9.453125 5.46875 -9.046875 C 5.9375 -8.648438 6.28125 -8.082031 6.5 -7.34375 C 6.726562 -6.613281 6.84375 -5.753906 6.84375 -4.765625 C 6.84375 -3.785156 6.726562 -2.925781 6.5 -2.1875 C 6.269531 -1.457031 5.925781 -0.882812 5.46875 -0.46875 C 5.007812 -0.0625 4.429688 0.140625 3.734375 0.140625 Z M 3.734375 -0.59375 C 4.378906 -0.59375 4.828125 -0.957031 5.078125 -1.6875 C 5.335938 -2.425781 5.46875 -3.453125 5.46875 -4.765625 C 5.46875 -6.085938 5.335938 -7.113281 5.078125 -7.84375 C 4.828125 -8.570312 4.382812 -8.9375 3.75 -8.9375 C 3.09375 -8.9375 2.632812 -8.570312 2.375 -7.84375 C 2.113281 -7.113281 1.984375 -6.085938 1.984375 -4.765625 C 1.984375 -3.453125 2.113281 -2.425781 2.375 -1.6875 C 2.632812 -0.957031 3.085938 -0.59375 3.734375 -0.59375 Z "/>
</g>
<g id="glyph-0-14">
<path d="M 3.25 0.140625 C 2.59375 0.140625 2.082031 0.0664062 1.71875 -0.078125 C 1.351562 -0.222656 1.097656 -0.398438 0.953125 -0.609375 C 0.804688 -0.816406 0.734375 -1.019531 0.734375 -1.21875 C 0.734375 -1.46875 0.800781 -1.660156 0.9375 -1.796875 C 1.070312 -1.929688 1.285156 -2 1.578125 -2 C 1.578125 -1.613281 1.707031 -1.289062 1.96875 -1.03125 C 2.238281 -0.78125 2.644531 -0.65625 3.1875 -0.65625 C 3.550781 -0.65625 3.875 -0.722656 4.15625 -0.859375 C 4.445312 -1.003906 4.675781 -1.238281 4.84375 -1.5625 C 5.007812 -1.894531 5.09375 -2.34375 5.09375 -2.90625 C 5.09375 -3.601562 4.90625 -4.125 4.53125 -4.46875 C 4.164062 -4.8125 3.675781 -4.984375 3.0625 -4.984375 C 2.601562 -4.984375 2.253906 -4.953125 2.015625 -4.890625 C 1.785156 -4.828125 1.585938 -4.757812 1.421875 -4.6875 L 1.109375 -4.78125 L 1.53125 -9.515625 L 5.984375 -9.515625 L 6.046875 -7.5 L 5.484375 -7.5 L 5.4375 -7.90625 C 5.40625 -8.09375 5.347656 -8.226562 5.265625 -8.3125 C 5.179688 -8.40625 5 -8.453125 4.71875 -8.453125 L 2.125 -8.453125 L 1.875 -5.5 C 2.007812 -5.550781 2.207031 -5.597656 2.46875 -5.640625 C 2.726562 -5.691406 3.050781 -5.71875 3.4375 -5.71875 C 4.019531 -5.71875 4.535156 -5.613281 4.984375 -5.40625 C 5.441406 -5.195312 5.804688 -4.882812 6.078125 -4.46875 C 6.347656 -4.0625 6.484375 -3.539062 6.484375 -2.90625 C 6.484375 -2.300781 6.351562 -1.769531 6.09375 -1.3125 C 5.84375 -0.851562 5.476562 -0.492188 5 -0.234375 C 4.519531 0.015625 3.9375 0.140625 3.25 0.140625 Z "/>
</g>
</g>
</defs>
<g fill="rgb(45.098039%, 44.705882%, 42.352941%)" fill-opacity="1">
<use xlink:href="#glyph-0-0" x="30" y="34.25293"/>
<use xlink:href="#glyph-0-1" x="35" y="34.25293"/>
<use xlink:href="#glyph-0-2" x="38" y="34.25293"/>
<use xlink:href="#glyph-0-3" x="46" y="34.25293"/>
<use xlink:href="#glyph-0-4" x="54" y="34.25293"/>
<use xlink:href="#glyph-0-5" x="62" y="34.25293"/>
<use xlink:href="#glyph-0-6" x="70" y="34.25293"/>
<use xlink:href="#glyph-0-1" x="79" y="34.25293"/>
<use xlink:href="#glyph-0-4" x="82" y="34.25293"/>
<use xlink:href="#glyph-0-5" x="90" y="34.25293"/>
<use xlink:href="#glyph-0-7" x="98" y="34.25293"/>
<use xlink:href="#glyph-0-5" x="102" y="34.25293"/>
<use xlink:href="#glyph-0-8" x="110" y="34.25293"/>
<use xlink:href="#glyph-0-9" x="123" y="34.25293"/>
<use xlink:href="#glyph-0-10" x="131" y="34.25293"/>
<use xlink:href="#glyph-0-11" x="135" y="34.25293"/>
<use xlink:href="#glyph-0-1" x="143" y="34.25293"/>
<use xlink:href="#glyph-0-12" x="146" y="34.25293"/>
<use xlink:href="#glyph-0-13" x="153" y="34.25293"/>
<use xlink:href="#glyph-0-12" x="160" y="34.25293"/>
<use xlink:href="#glyph-0-14" x="167" y="34.25293"/>
</g>
</svg>
