<?xml version="1.0" encoding="UTF-8"?>
<svg xmlns="http://www.w3.org/2000/svg" xmlns:xlink="http://www.w3.org/1999/xlink" width="854" height="480" viewBox="0 0 854 480">
<defs>
<g>
<g id="glyph-0-0">
</g>
<g id="glyph-0-1">
<path d="M 0.375 0 L 0.375 -0.703125 L 0.9375 -0.703125 C 1.113281 -0.703125 1.269531 -0.742188 1.40625 -0.828125 C 1.539062 -0.921875 1.609375 -1.144531 1.609375 -1.5 L 1.609375 -8 C 1.609375 -8.351562 1.539062 -8.578125 1.40625 -8.671875 C 1.269531 -8.765625 1.113281 -8.8125 0.9375 -8.8125 L 0.375 -8.8125 L 0.375 -9.515625 L 4.671875 -9.515625 C 5.929688 -9.515625 6.851562 -9.300781 7.4375 -8.875 C 8.019531 -8.457031 8.3125 -7.847656 8.3125 -7.046875 C 8.3125 -6.578125 8.222656 -6.175781 8.046875 -5.84375 C 7.867188 -5.519531 7.640625 -5.25 7.359375 -5.03125 C 7.085938 -4.820312 6.800781 -4.65625 6.5 -4.53125 L 8.09375 -1.796875 C 8.320312 -1.410156 8.535156 -1.128906 8.734375 -0.953125 C 8.941406 -0.785156 9.171875 -0.703125 9.421875 -0.703125 L 9.46875 -0.703125 L 9.46875 0 L 9.03125 0 C 8.5 0 8.054688 -0.03125 7.703125 -0.09375 C 7.347656 -0.15625 7.050781 -0.269531 6.8125 -0.4375 C 6.582031 -0.613281 6.375 -0.867188 6.1875 -1.203125 L 4.59375 -4.125 L 3.71875 -4.125 L 3.71875 -1.5 C 3.71875 -1.144531 3.785156 -0.921875 3.921875 -0.828125 C 4.054688 -0.742188 4.210938 -0.703125 4.390625 -0.703125 L 4.96875 -0.703125 L 4.96875 0 Z M 4.46875 -4.90625 C 5.082031 -4.90625 5.503906 -5.066406 5.734375 -5.390625 C 5.960938 -5.722656 6.078125 -6.210938 6.078125 -6.859375 C 6.078125 -7.535156 5.953125 -8.015625 5.703125 -8.296875 C 5.453125 -8.585938 5.03125 -8.734375 4.4375 -8.734375 L 3.71875 -8.734375 L 3.71875 -4.90625 Z "/>
</g>
<g id="glyph-0-2">
<path d="M 4.078125 0.140625 C 2.953125 0.140625 2.09375 -0.179688 1.5 -0.828125 C 0.914062 -1.472656 0.625 -2.375 0.625 -3.53125 C 0.625 -4.78125 0.910156 -5.722656 1.484375 -6.359375 C 2.066406 -6.992188 2.882812 -7.3125 3.9375 -7.3125 C 4.90625 -7.3125 5.664062 -7.039062 6.21875 -6.5 C 6.769531 -5.957031 7.046875 -5.160156 7.046875 -4.109375 L 7.046875 -3.421875 L 2.671875 -3.421875 C 2.703125 -2.535156 2.867188 -1.882812 3.171875 -1.46875 C 3.484375 -1.0625 3.914062 -0.859375 4.46875 -0.859375 C 4.925781 -0.859375 5.316406 -0.960938 5.640625 -1.171875 C 5.960938 -1.390625 6.195312 -1.648438 6.34375 -1.953125 C 6.582031 -1.816406 6.703125 -1.597656 6.703125 -1.296875 C 6.703125 -0.910156 6.488281 -0.570312 6.0625 -0.28125 C 5.632812 0 4.972656 0.140625 4.078125 0.140625 Z M 5.015625 -4.28125 C 5.015625 -4.957031 4.929688 -5.488281 4.765625 -5.875 C 4.609375 -6.257812 4.335938 -6.453125 3.953125 -6.453125 C 3.585938 -6.453125 3.289062 -6.265625 3.0625 -5.890625 C 2.84375 -5.523438 2.722656 -4.988281 2.703125 -4.28125 Z "/>
</g>
<g id="glyph-0-3">
<path d="M 2.6875 0.140625 C 2.101562 0.140625 1.609375 -0.0351562 1.203125 -0.390625 C 0.796875 -0.753906 0.59375 -1.304688 0.59375 -2.046875 C 0.59375 -2.765625 0.84375 -3.296875 1.34375 -3.640625 C 1.84375 -3.984375 2.585938 -4.175781 3.578125 -4.21875 L 4.671875 -4.25 L 4.671875 -4.984375 C 4.671875 -5.429688 4.625 -5.796875 4.53125 -6.078125 C 4.4375 -6.359375 4.210938 -6.5 3.859375 -6.5 C 3.515625 -6.5 3.273438 -6.363281 3.140625 -6.09375 C 3.015625 -5.820312 2.953125 -5.476562 2.953125 -5.0625 C 2.359375 -5.0625 1.910156 -5.128906 1.609375 -5.265625 C 1.304688 -5.398438 1.15625 -5.628906 1.15625 -5.953125 C 1.15625 -6.285156 1.28125 -6.546875 1.53125 -6.734375 C 1.78125 -6.929688 2.113281 -7.078125 2.53125 -7.171875 C 2.945312 -7.265625 3.40625 -7.3125 3.90625 -7.3125 C 4.832031 -7.3125 5.53125 -7.140625 6 -6.796875 C 6.46875 -6.460938 6.703125 -5.878906 6.703125 -5.046875 L 6.703125 -1.65625 C 6.703125 -1.289062 6.757812 -1.039062 6.875 -0.90625 C 6.988281 -0.769531 7.195312 -0.703125 7.5 -0.703125 L 7.5625 -0.703125 L 7.5625 0 L 5.078125 0 L 4.796875 -0.921875 L 4.671875 -0.921875 C 4.484375 -0.679688 4.300781 -0.484375 4.125 -0.328125 C 3.945312 -0.171875 3.75 -0.0546875 3.53125 0.015625 C 3.3125 0.0976562 3.03125 0.140625 2.6875 0.140625 Z M 3.421875 -0.84375 C 3.804688 -0.84375 4.109375 -0.992188 4.328125 -1.296875 C 4.554688 -1.609375 4.671875 -2.023438 4.671875 -2.546875 L 4.671875 -3.546875 L 4.078125 -3.5 C 3.546875 -3.476562 3.175781 -3.335938 2.96875 -3.078125 C 2.769531 -2.828125 2.671875 -2.460938 2.671875 -1.984375 C 2.671875 -1.222656 2.921875 -0.84375 3.421875 -0.84375 Z "/>
</g>
<g id="glyph-0-4">
<path d="M 0.234375 0 L 0.234375 -0.703125 L 0.390625 -0.703125 C 0.523438 -0.703125 0.664062 -0.722656 0.8125 -0.765625 C 0.957031 -0.804688 1.078125 -0.890625 1.171875 -1.015625 C 1.273438 -1.140625 1.328125 -1.328125 1.328125 -1.578125 L 1.328125 -8.609375 C 1.328125 -8.847656 1.273438 -9.023438 1.171875 -9.140625 C 1.066406 -9.253906 0.941406 -9.328125 0.796875 -9.359375 C 0.648438 -9.398438 0.515625 -9.421875 0.390625 -9.421875 L 0.234375 -9.421875 L 0.234375 -10.125 L 3.359375 -10.125 L 3.359375 -1.578125 C 3.359375 -1.328125 3.410156 -1.140625 3.515625 -1.015625 C 3.617188 -0.890625 3.742188 -0.804688 3.890625 -0.765625 C 4.046875 -0.722656 4.1875 -0.703125 4.3125 -0.703125 L 4.46875 -0.703125 L 4.46875 0 Z "/>
</g>
<g id="glyph-0-5">
<path d="M 0.328125 -2.9375 L 0.328125 -4.328125 L 3.796875 -4.328125 L 3.796875 -2.9375 Z "/>
</g>
<g id="glyph-0-6">
<path d="M 3.234375 0.140625 C 2.640625 0.140625 2.164062 -0.015625 1.8125 -0.328125 C 1.457031 -0.640625 1.28125 -1.1875 1.28125 -1.96875 L 1.28125 -6.234375 L 0.28125 -6.234375 L 0.28125 -6.921875 C 0.5625 -6.921875 0.816406 -6.976562 1.046875 -7.09375 C 1.273438 -7.207031 1.457031 -7.335938 1.59375 -7.484375 C 1.863281 -7.773438 2.066406 -8.210938 2.203125 -8.796875 L 3.3125 -8.796875 L 3.3125 -7.140625 L 5.015625 -7.140625 L 5.015625 -6.234375 L 3.3125 -6.234375 L 3.3125 -2.109375 C 3.3125 -1.703125 3.378906 -1.40625 3.515625 -1.21875 C 3.648438 -1.039062 3.875 -0.953125 4.1875 -0.953125 C 4.363281 -0.953125 4.53125 -0.960938 4.6875 -0.984375 C 4.84375 -1.003906 4.988281 -1.03125 5.125 -1.0625 L 5.125 -0.203125 C 4.988281 -0.140625 4.753906 -0.0664062 4.421875 0.015625 C 4.097656 0.0976562 3.703125 0.140625 3.234375 0.140625 Z "/>
</g>
<g id="glyph-0-7">
<path d="M 2.28125 -8.34375 C 1.957031 -8.34375 1.6875 -8.421875 1.46875 -8.578125 C 1.25 -8.734375 1.140625 -8.972656 1.140625 -9.296875 C 1.140625 -9.640625 1.25 -9.882812 1.46875 -10.03125 C 1.6875 -10.1875 1.957031 -10.265625 2.28125 -10.265625 C 2.59375 -10.265625 2.859375 -10.1875 3.078125 -10.03125 C 3.304688 -9.882812 3.421875 -9.640625 3.421875 -9.296875 C 3.421875 -8.972656 3.304688 -8.734375 3.078125 -8.578125 C 2.859375 -8.421875 2.59375 -8.34375 2.28125 -8.34375 Z M 0.234375 0 L 0.234375 -0.703125 L 0.390625 -0.703125 C 0.523438 -0.703125 0.664062 -0.722656 0.8125 -0.765625 C 0.957031 -0.804688 1.078125 -0.890625 1.171875 -1.015625 C 1.273438 -1.140625 1.328125 -1.328125 1.328125 -1.578125 L 1.328125 -5.625 C 1.328125 -5.863281 1.273438 -6.039062 1.171875 -6.15625 C 1.066406 -6.269531 0.941406 -6.34375 0.796875 -6.375 C 0.648438 -6.414062 0.515625 -6.4375 0.390625 -6.4375 L 0.234375 -6.4375 L 0.234375 -7.140625 L 3.359375 -7.140625 L 3.359375 -1.578125 C 3.359375 -1.328125 3.410156 -1.140625 3.515625 -1.015625 C 3.617188 -0.890625 3.742188 -0.804688 3.890625 -0.765625 C 4.046875 -0.722656 4.1875 -0.703125 4.3125 -0.703125 L 4.46875 -0.703125 L 4.46875 0 Z "/>
</g>
<g id="glyph-0-8">
<path d="M 0.265625 0 L 0.265625 -0.703125 L 0.296875 -0.703125 C 0.597656 -0.703125 0.84375 -0.753906 1.03125 -0.859375 C 1.226562 -0.972656 1.328125 -1.226562 1.328125 -1.625 L 1.328125 -5.609375 C 1.328125 -5.984375 1.238281 -6.222656 1.0625 -6.328125 C 0.894531 -6.429688 0.664062 -6.484375 0.375 -6.484375 L 0.328125 -6.484375 L 0.328125 -7.140625 L 3.125 -7.140625 L 3.3125 -6.203125 L 3.375 -6.203125 C 3.550781 -6.535156 3.742188 -6.78125 3.953125 -6.9375 C 4.160156 -7.09375 4.382812 -7.191406 4.625 -7.234375 C 4.875 -7.285156 5.132812 -7.3125 5.40625 -7.3125 C 5.894531 -7.3125 6.3125 -7.222656 6.65625 -7.046875 C 7.007812 -6.867188 7.265625 -6.585938 7.421875 -6.203125 L 7.546875 -6.203125 C 7.722656 -6.535156 7.921875 -6.78125 8.140625 -6.9375 C 8.367188 -7.09375 8.609375 -7.191406 8.859375 -7.234375 C 9.117188 -7.285156 9.382812 -7.3125 9.65625 -7.3125 C 10.34375 -7.3125 10.878906 -7.109375 11.265625 -6.703125 C 11.660156 -6.296875 11.859375 -5.644531 11.859375 -4.75 L 11.859375 -1.65625 C 11.859375 -1.25 11.929688 -0.988281 12.078125 -0.875 C 12.222656 -0.757812 12.445312 -0.703125 12.75 -0.703125 L 12.796875 -0.703125 L 12.796875 0 L 9.84375 0 L 9.84375 -4.390625 C 9.84375 -4.960938 9.757812 -5.40625 9.59375 -5.71875 C 9.4375 -6.03125 9.160156 -6.1875 8.765625 -6.1875 C 8.492188 -6.1875 8.269531 -6.097656 8.09375 -5.921875 C 7.925781 -5.753906 7.800781 -5.523438 7.71875 -5.234375 C 7.644531 -4.941406 7.609375 -4.625 7.609375 -4.28125 L 7.609375 -1.65625 C 7.609375 -1.25 7.679688 -0.988281 7.828125 -0.875 C 7.972656 -0.757812 8.195312 -0.703125 8.5 -0.703125 L 8.546875 -0.703125 L 8.546875 0 L 5.578125 0 L 5.578125 -4.390625 C 5.578125 -4.960938 5.5 -5.40625 5.34375 -5.71875 C 5.1875 -6.03125 4.910156 -6.1875 4.515625 -6.1875 C 4.222656 -6.1875 3.992188 -6.085938 3.828125 -5.890625 C 3.660156 -5.703125 3.539062 -5.453125 3.46875 -5.140625 C 3.394531 -4.828125 3.359375 -4.488281 3.359375 -4.125 L 3.359375 -1.578125 C 3.359375 -1.203125 3.441406 -0.960938 3.609375 -0.859375 C 3.785156 -0.753906 4.019531 -0.703125 4.3125 -0.703125 L 4.359375 -0.703125 L 4.359375 0 Z "/>
</g>
<g id="glyph-0-9">
<path d="M 3.328125 0.140625 C 2.460938 0.140625 1.789062 -0.15625 1.3125 -0.75 C 0.84375 -1.34375 0.609375 -2.28125 0.609375 -3.5625 C 0.609375 -4.84375 0.84375 -5.785156 1.3125 -6.390625 C 1.78125 -6.992188 2.445312 -7.296875 3.3125 -7.296875 C 3.800781 -7.296875 4.207031 -7.195312 4.53125 -7 C 4.851562 -6.800781 5.109375 -6.546875 5.296875 -6.234375 L 5.390625 -6.234375 C 5.347656 -6.484375 5.316406 -6.765625 5.296875 -7.078125 C 5.285156 -7.390625 5.28125 -7.648438 5.28125 -7.859375 L 5.28125 -8.59375 C 5.28125 -8.957031 5.171875 -9.1875 4.953125 -9.28125 C 4.742188 -9.375 4.492188 -9.421875 4.203125 -9.421875 L 4.09375 -9.421875 L 4.09375 -10.125 L 7.296875 -10.125 L 7.296875 -1.640625 C 7.296875 -1.367188 7.347656 -1.164062 7.453125 -1.03125 C 7.554688 -0.90625 7.691406 -0.816406 7.859375 -0.765625 C 8.023438 -0.722656 8.207031 -0.703125 8.40625 -0.703125 L 8.46875 -0.703125 L 8.46875 0 L 5.875 0 L 5.5 -1.046875 L 5.390625 -1.046875 C 5.191406 -0.679688 4.929688 -0.390625 4.609375 -0.171875 C 4.285156 0.0351562 3.859375 0.140625 3.328125 0.140625 Z M 3.90625 -0.859375 C 4.425781 -0.859375 4.785156 -1.082031 4.984375 -1.53125 C 5.179688 -1.988281 5.28125 -2.671875 5.28125 -3.578125 C 5.28125 -4.460938 5.179688 -5.140625 4.984375 -5.609375 C 4.785156 -6.078125 4.425781 -6.3125 3.90625 -6.3125 C 3.457031 -6.3125 3.140625 -6.078125 2.953125 -5.609375 C 2.765625 -5.140625 2.671875 -4.460938 2.671875 -3.578125 C 2.671875 -2.671875 2.765625 -1.988281 2.953125 -1.53125 C 3.140625 -1.082031 3.457031 -0.859375 3.90625 -0.859375 Z "/>
</g>
</g>
</defs>
<g fill="rgb(75.686275%, 37.254902%, 23.529412%)" fill-opacity="1">
<use xlink:href="#glyph-0-0" x="30" y="34.25293"/>
<use xlink:href="#glyph-0-0" x="33" y="34.25293"/>
<use xlink:href="#glyph-0-1" x="36" y="34.25293"/>
<use xlink:href="#glyph-0-2" x="45" y="34.25293"/>
<use xlink:href="#glyph-0-3" x="53" y="34.25293"/>
<use xlink:href="#glyph-0-4" x="61" y="34.25293"/>
<use xlink:href="#glyph-0-5" x="66" y="34.25293"/>
<use xlink:href="#glyph-0-6" x="70" y="34.25293"/>
<use xlink:href="#glyph-0-7" x="75" y="34.25293"/>
<use xlink:href="#glyph-0-8" x="80" y="34.25293"/>
<use xlink:href="#glyph-0-2" x="93" y="34.25293"/>
<use xlink:href="#glyph-0-0" x="101" y="34.25293"/>
<use xlink:href="#glyph-0-9" x="104" y="34.25293"/>
<use xlink:href="#glyph-0-3" x="113" y="34.25293"/>
<use xlink:href="#glyph-0-6" x="121" y="34.25293"/>
<use xlink:href="#glyph-0-3" x="126" y="34.25293"/>
</g>
</svg>
