<?xml version="1.0" encoding="UTF-8"?>
<svg xmlns="http://www.w3.org/2000/svg" xmlns:xlink="http://www.w3.org/1999/xlink" width="854" height="480" viewBox="0 0 854 480">
<defs>
<g>
<g id="glyph-0-0">
<path d="M 3.9375 0.140625 C 3.28125 0.140625 2.703125 0.0195312 2.203125 -0.21875 C 1.710938 -0.457031 1.328125 -0.84375 1.046875 -1.375 C 0.765625 -1.914062 0.625 -2.640625 0.625 -3.546875 C 0.625 -4.503906 0.769531 -5.253906 1.0625 -5.796875 C 1.351562 -6.347656 1.742188 -6.738281 2.234375 -6.96875 C 2.722656 -7.195312 3.273438 -7.3125 3.890625 -7.3125 C 4.753906 -7.3125 5.410156 -7.175781 5.859375 -6.90625 C 6.304688 -6.632812 6.53125 -6.304688 6.53125 -5.921875 C 6.53125 -5.734375 6.484375 -5.550781 6.390625 -5.375 C 6.296875 -5.207031 6.125 -5.066406 5.875 -4.953125 C 5.625 -4.835938 5.269531 -4.78125 4.8125 -4.78125 C 4.8125 -5.09375 4.785156 -5.378906 4.734375 -5.640625 C 4.679688 -5.898438 4.59375 -6.109375 4.46875 -6.265625 C 4.34375 -6.421875 4.164062 -6.5 3.9375 -6.5 C 3.6875 -6.5 3.460938 -6.410156 3.265625 -6.234375 C 3.078125 -6.066406 2.929688 -5.769531 2.828125 -5.34375 C 2.722656 -4.914062 2.671875 -4.320312 2.671875 -3.5625 C 2.671875 -2.664062 2.796875 -1.988281 3.046875 -1.53125 C 3.296875 -1.082031 3.703125 -0.859375 4.265625 -0.859375 C 4.722656 -0.859375 5.117188 -0.960938 5.453125 -1.171875 C 5.796875 -1.390625 6.046875 -1.648438 6.203125 -1.953125 C 6.304688 -1.890625 6.382812 -1.800781 6.4375 -1.6875 C 6.488281 -1.570312 6.515625 -1.453125 6.515625 -1.328125 C 6.515625 -1.109375 6.421875 -0.882812 6.234375 -0.65625 C 6.054688 -0.425781 5.78125 -0.234375 5.40625 -0.078125 C 5.03125 0.0664062 4.539062 0.140625 3.9375 0.140625 Z "/>
</g>
<g id="glyph-0-1">
<path d="M 4.0625 0.140625 C 3 0.140625 2.160156 -0.164062 1.546875 -0.78125 C 0.929688 -1.40625 0.625 -2.34375 0.625 -3.59375 C 0.625 -4.851562 0.914062 -5.785156 1.5 -6.390625 C 2.09375 -7.003906 2.960938 -7.3125 4.109375 -7.3125 C 5.171875 -7.3125 6.007812 -7.003906 6.625 -6.390625 C 7.238281 -5.785156 7.546875 -4.851562 7.546875 -3.59375 C 7.546875 -2.34375 7.25 -1.40625 6.65625 -0.78125 C 6.0625 -0.164062 5.195312 0.140625 4.0625 0.140625 Z M 4.09375 -0.703125 C 4.601562 -0.703125 4.960938 -0.945312 5.171875 -1.4375 C 5.378906 -1.9375 5.484375 -2.65625 5.484375 -3.59375 C 5.484375 -4.550781 5.375 -5.269531 5.15625 -5.75 C 4.945312 -6.226562 4.585938 -6.46875 4.078125 -6.46875 C 3.566406 -6.46875 3.207031 -6.226562 3 -5.75 C 2.789062 -5.269531 2.6875 -4.550781 2.6875 -3.59375 C 2.6875 -2.65625 2.789062 -1.9375 3 -1.4375 C 3.207031 -0.945312 3.570312 -0.703125 4.09375 -0.703125 Z "/>
</g>
<g id="glyph-0-2">
<path d="M 3.328125 0.140625 C 2.460938 0.140625 1.789062 -0.15625 1.3125 -0.75 C 0.84375 -1.34375 0.609375 -2.28125 0.609375 -3.5625 C 0.609375 -4.84375 0.84375 -5.785156 1.3125 -6.390625 C 1.78125 -6.992188 2.445312 -7.296875 3.3125 -7.296875 C 3.800781 -7.296875 4.207031 -7.195312 4.53125 -7 C 4.851562 -6.800781 5.109375 -6.546875 5.296875 -6.234375 L 5.390625 -6.234375 C 5.347656 -6.484375 5.316406 -6.765625 5.296875 -7.078125 C 5.285156 -7.390625 5.28125 -7.648438 5.28125 -7.859375 L 5.28125 -8.59375 C 5.28125 -8.957031 5.171875 -9.1875 4.953125 -9.28125 C 4.742188 -9.375 4.492188 -9.421875 4.203125 -9.421875 L 4.09375 -9.421875 L 4.09375 -10.125 L 7.296875 -10.125 L 7.296875 -1.640625 C 7.296875 -1.367188 7.347656 -1.164062 7.453125 -1.03125 C 7.554688 -0.90625 7.691406 -0.816406 7.859375 -0.765625 C 8.023438 -0.722656 8.207031 -0.703125 8.40625 -0.703125 L 8.46875 -0.703125 L 8.46875 0 L 5.875 0 L 5.5 -1.046875 L 5.390625 -1.046875 C 5.191406 -0.679688 4.929688 -0.390625 4.609375 -0.171875 C 4.285156 0.0351562 3.859375 0.140625 3.328125 0.140625 Z M 3.90625 -0.859375 C 4.425781 -0.859375 4.785156 -1.082031 4.984375 -1.53125 C 5.179688 -1.988281 5.28125 -2.671875 5.28125 -3.578125 C 5.28125 -4.460938 5.179688 -5.140625 4.984375 -5.609375 C 4.785156 -6.078125 4.425781 -6.3125 3.90625 -6.3125 C 3.457031 -6.3125 3.140625 -6.078125 2.953125 -5.609375 C 2.765625 -5.140625 2.671875 -4.460938 2.671875 -3.578125 C 2.671875 -2.671875 2.765625 -1.988281 2.953125 -1.53125 C 3.140625 -1.082031 3.457031 -0.859375 3.90625 -0.859375 Z "/>
</g>
<g id="glyph-0-3">
<path d="M 4.078125 0.140625 C 2.953125 0.140625 2.09375 -0.179688 1.5 -0.828125 C 0.914062 -1.472656 0.625 -2.375 0.625 -3.53125 C 0.625 -4.78125 0.910156 -5.722656 1.484375 -6.359375 C 2.066406 -6.992188 2.882812 -7.3125 3.9375 -7.3125 C 4.90625 -7.3125 5.664062 -7.039062 6.21875 -6.5 C 6.769531 -5.957031 7.046875 -5.160156 7.046875 -4.109375 L 7.046875 -3.421875 L 2.671875 -3.421875 C 2.703125 -2.535156 2.867188 -1.882812 3.171875 -1.46875 C 3.484375 -1.0625 3.914062 -0.859375 4.46875 -0.859375 C 4.925781 -0.859375 5.316406 -0.960938 5.640625 -1.171875 C 5.960938 -1.390625 6.195312 -1.648438 6.34375 -1.953125 C 6.582031 -1.816406 6.703125 -1.597656 6.703125 -1.296875 C 6.703125 -0.910156 6.488281 -0.570312 6.0625 -0.28125 C 5.632812 0 4.972656 0.140625 4.078125 0.140625 Z M 5.015625 -4.28125 C 5.015625 -4.957031 4.929688 -5.488281 4.765625 -5.875 C 4.609375 -6.257812 4.335938 -6.453125 3.953125 -6.453125 C 3.585938 -6.453125 3.289062 -6.265625 3.0625 -5.890625 C 2.84375 -5.523438 2.722656 -4.988281 2.703125 -4.28125 Z "/>
</g>
<g id="glyph-0-4">
</g>
<g id="glyph-0-5">
<path d="M 0.25 0 L 0.25 -0.703125 L 0.546875 -0.703125 C 0.679688 -0.703125 0.820312 -0.722656 0.96875 -0.765625 C 1.113281 -0.804688 1.238281 -0.890625 1.34375 -1.015625 C 1.445312 -1.140625 1.5 -1.328125 1.5 -1.578125 L 1.5 -6.234375 L 0.3125 -6.234375 L 0.3125 -7.140625 L 1.5 -7.140625 L 1.5 -7.640625 C 1.5 -8.460938 1.710938 -9.101562 2.140625 -9.5625 C 2.578125 -10.019531 3.269531 -10.25 4.21875 -10.25 C 4.789062 -10.25 5.234375 -10.207031 5.546875 -10.125 C 5.867188 -10.039062 6.097656 -9.925781 6.234375 -9.78125 C 6.367188 -9.632812 6.4375 -9.46875 6.4375 -9.28125 C 6.4375 -8.695312 5.890625 -8.40625 4.796875 -8.40625 C 4.796875 -8.550781 4.773438 -8.707031 4.734375 -8.875 C 4.691406 -9.039062 4.625 -9.179688 4.53125 -9.296875 C 4.4375 -9.421875 4.300781 -9.484375 4.125 -9.484375 C 3.90625 -9.484375 3.75 -9.359375 3.65625 -9.109375 C 3.5625 -8.867188 3.515625 -8.457031 3.515625 -7.875 L 3.515625 -7.140625 L 5.359375 -7.140625 L 5.359375 -6.234375 L 3.515625 -6.234375 L 3.515625 -1.578125 C 3.515625 -1.328125 3.566406 -1.140625 3.671875 -1.015625 C 3.773438 -0.890625 3.898438 -0.804688 4.046875 -0.765625 C 4.203125 -0.722656 4.34375 -0.703125 4.46875 -0.703125 L 5.09375 -0.703125 L 5.09375 0 Z "/>
</g>
<g id="glyph-0-6">
<path d="M 3.4375 0.140625 C 2.75 0.140625 2.21875 -0.0703125 1.84375 -0.5 C 1.46875 -0.9375 1.28125 -1.601562 1.28125 -2.5 L 1.28125 -5.484375 C 1.28125 -5.878906 1.207031 -6.132812 1.0625 -6.25 C 0.925781 -6.375 0.695312 -6.4375 0.375 -6.4375 L 0.34375 -6.4375 L 0.34375 -7.140625 L 3.3125 -7.140625 L 3.3125 -2.875 C 3.3125 -2.3125 3.378906 -1.859375 3.515625 -1.515625 C 3.660156 -1.171875 3.925781 -1 4.3125 -1 C 4.738281 -1 5.046875 -1.179688 5.234375 -1.546875 C 5.429688 -1.910156 5.53125 -2.40625 5.53125 -3.03125 L 5.53125 -5.578125 C 5.53125 -5.972656 5.429688 -6.210938 5.234375 -6.296875 C 5.046875 -6.390625 4.828125 -6.4375 4.578125 -6.4375 L 4.53125 -6.4375 L 4.53125 -7.140625 L 7.5625 -7.140625 L 7.5625 -1.546875 C 7.5625 -1.160156 7.644531 -0.921875 7.8125 -0.828125 C 7.976562 -0.742188 8.191406 -0.703125 8.453125 -0.703125 L 8.5625 -0.703125 L 8.5625 0 L 5.90625 0 L 5.609375 -0.953125 L 5.546875 -0.953125 C 5.273438 -0.484375 4.957031 -0.179688 4.59375 -0.046875 C 4.238281 0.078125 3.851562 0.140625 3.4375 0.140625 Z "/>
</g>
<g id="glyph-0-7">
<path d="M 0.265625 0 L 0.265625 -0.703125 L 0.296875 -0.703125 C 0.597656 -0.703125 0.84375 -0.753906 1.03125 -0.859375 C 1.226562 -0.972656 1.328125 -1.226562 1.328125 -1.625 L 1.328125 -5.578125 C 1.328125 -5.941406 1.238281 -6.175781 1.0625 -6.28125 C 0.894531 -6.382812 0.664062 -6.4375 0.375 -6.4375 L 0.328125 -6.4375 L 0.328125 -7.140625 L 3.125 -7.140625 L 3.3125 -6.203125 L 3.375 -6.203125 C 3.550781 -6.535156 3.742188 -6.78125 3.953125 -6.9375 C 4.160156 -7.09375 4.382812 -7.191406 4.625 -7.234375 C 4.875 -7.285156 5.132812 -7.3125 5.40625 -7.3125 C 6.09375 -7.3125 6.628906 -7.109375 7.015625 -6.703125 C 7.410156 -6.296875 7.609375 -5.644531 7.609375 -4.75 L 7.609375 -1.65625 C 7.609375 -1.25 7.679688 -0.988281 7.828125 -0.875 C 7.972656 -0.757812 8.195312 -0.703125 8.5 -0.703125 L 8.546875 -0.703125 L 8.546875 0 L 5.578125 0 L 5.578125 -4.390625 C 5.578125 -4.960938 5.5 -5.40625 5.34375 -5.71875 C 5.1875 -6.03125 4.910156 -6.1875 4.515625 -6.1875 C 4.222656 -6.1875 3.992188 -6.085938 3.828125 -5.890625 C 3.660156 -5.703125 3.539062 -5.453125 3.46875 -5.140625 C 3.394531 -4.828125 3.359375 -4.488281 3.359375 -4.125 L 3.359375 -1.578125 C 3.359375 -1.203125 3.441406 -0.960938 3.609375 -0.859375 C 3.785156 -0.753906 4.019531 -0.703125 4.3125 -0.703125 L 4.359375 -0.703125 L 4.359375 0 Z "/>
</g>
<g id="glyph-0-8">
<path d="M 3.234375 0.140625 C 2.640625 0.140625 2.164062 -0.015625 1.8125 -0.328125 C 1.457031 -0.640625 1.28125 -1.1875 1.28125 -1.96875 L 1.28125 -6.234375 L 0.28125 -6.234375 L 0.28125 -6.921875 C 0.5625 -6.921875 0.816406 -6.976562 1.046875 -7.09375 C 1.273438 -7.207031 1.457031 -7.335938 1.59375 -7.484375 C 1.863281 -7.773438 2.066406 -8.210938 2.203125 -8.796875 L 3.3125 -8.796875 L 3.3125 -7.140625 L 5.015625 -7.140625 L 5.015625 -6.234375 L 3.3125 -6.234375 L 3.3125 -2.109375 C 3.3125 -1.703125 3.378906 -1.40625 3.515625 -1.21875 C 3.648438 -1.039062 3.875 -0.953125 4.1875 -0.953125 C 4.363281 -0.953125 4.53125 -0.960938 4.6875 -0.984375 C 4.84375 -1.003906 4.988281 -1.03125 5.125 -1.0625 L 5.125 -0.203125 C 4.988281 -0.140625 4.753906 -0.0664062 4.421875 0.015625 C 4.097656 0.0976562 3.703125 0.140625 3.234375 0.140625 Z "/>
</g>
<g id="glyph-0-9">
<path d="M 2.28125 -8.34375 C 1.957031 -8.34375 1.6875 -8.421875 1.46875 -8.578125 C 1.25 -8.734375 1.140625 -8.972656 1.140625 -9.296875 C 1.140625 -9.640625 1.25 -9.882812 1.46875 -10.03125 C 1.6875 -10.1875 1.957031 -10.265625 2.28125 -10.265625 C 2.59375 -10.265625 2.859375 -10.1875 3.078125 -10.03125 C 3.304688 -9.882812 3.421875 -9.640625 3.421875 -9.296875 C 3.421875 -8.972656 3.304688 -8.734375 3.078125 -8.578125 C 2.859375 -8.421875 2.59375 -8.34375 2.28125 -8.34375 Z M 0.234375 0 L 0.234375 -0.703125 L 0.390625 -0.703125 C 0.523438 -0.703125 0.664062 -0.722656 0.8125 -0.765625 C 0.957031 -0.804688 1.078125 -0.890625 1.171875 -1.015625 C 1.273438 -1.140625 1.328125 -1.328125 1.328125 -1.578125 L 1.328125 -5.625 C 1.328125 -5.863281 1.273438 -6.039062 1.171875 -6.15625 C 1.066406 -6.269531 0.941406 -6.34375 0.796875 -6.375 C 0.648438 -6.414062 0.515625 -6.4375 0.390625 -6.4375 L 0.234375 -6.4375 L 0.234375 -7.140625 L 3.359375 -7.140625 L 3.359375 -1.578125 C 3.359375 -1.328125 3.410156 -1.140625 3.515625 -1.015625 C 3.617188 -0.890625 3.742188 -0.804688 3.890625 -0.765625 C 4.046875 -0.722656 4.1875 -0.703125 4.3125 -0.703125 L 4.46875 -0.703125 L 4.46875 0 Z "/>
</g>
<g id="glyph-0-10">
<path d="M 3.078125 0.140625 C 2.109375 0.140625 1.421875 -0.0078125 1.015625 -0.3125 C 0.609375 -0.613281 0.40625 -0.984375 0.40625 -1.421875 C 0.40625 -1.710938 0.472656 -1.929688 0.609375 -2.078125 C 0.753906 -2.222656 0.921875 -2.316406 1.109375 -2.359375 C 1.304688 -2.410156 1.484375 -2.4375 1.640625 -2.4375 C 1.640625 -1.882812 1.769531 -1.445312 2.03125 -1.125 C 2.289062 -0.8125 2.640625 -0.65625 3.078125 -0.65625 C 3.535156 -0.65625 3.867188 -0.742188 4.078125 -0.921875 C 4.285156 -1.097656 4.390625 -1.3125 4.390625 -1.5625 C 4.390625 -1.851562 4.273438 -2.09375 4.046875 -2.28125 C 3.816406 -2.46875 3.390625 -2.671875 2.765625 -2.890625 C 2.035156 -3.140625 1.476562 -3.4375 1.09375 -3.78125 C 0.71875 -4.125 0.53125 -4.59375 0.53125 -5.1875 C 0.53125 -5.894531 0.789062 -6.421875 1.3125 -6.765625 C 1.84375 -7.117188 2.539062 -7.296875 3.40625 -7.296875 C 3.957031 -7.296875 4.40625 -7.234375 4.75 -7.109375 C 5.09375 -6.992188 5.34375 -6.84375 5.5 -6.65625 C 5.65625 -6.46875 5.734375 -6.269531 5.734375 -6.0625 C 5.734375 -5.757812 5.628906 -5.53125 5.421875 -5.375 C 5.210938 -5.21875 4.863281 -5.140625 4.375 -5.140625 C 4.375 -5.585938 4.273438 -5.929688 4.078125 -6.171875 C 3.878906 -6.421875 3.585938 -6.546875 3.203125 -6.546875 C 2.910156 -6.546875 2.65625 -6.472656 2.4375 -6.328125 C 2.226562 -6.191406 2.125 -5.988281 2.125 -5.71875 C 2.125 -5.53125 2.171875 -5.363281 2.265625 -5.21875 C 2.367188 -5.082031 2.550781 -4.945312 2.8125 -4.8125 C 3.082031 -4.675781 3.457031 -4.523438 3.9375 -4.359375 C 4.539062 -4.148438 5.03125 -3.878906 5.40625 -3.546875 C 5.78125 -3.210938 5.96875 -2.769531 5.96875 -2.21875 C 5.96875 -1.476562 5.71875 -0.898438 5.21875 -0.484375 C 4.71875 -0.0664062 4.003906 0.140625 3.078125 0.140625 Z "/>
</g>
</g>
</defs>
<g fill="rgb(61.176471%, 60.392157%, 57.254902%)" fill-opacity="1">
<use xlink:href="#glyph-0-0" x="30" y="34.25293"/>
<use xlink:href="#glyph-0-1" x="37" y="34.25293"/>
<use xlink:href="#glyph-0-2" x="45" y="34.25293"/>
<use xlink:href="#glyph-0-3" x="54" y="34.25293"/>
<use xlink:href="#glyph-0-4" x="62" y="34.25293"/>
<use xlink:href="#glyph-0-5" x="65" y="34.25293"/>
<use xlink:href="#glyph-0-6" x="70" y="34.25293"/>
<use xlink:href="#glyph-0-7" x="79" y="34.25293"/>
<use xlink:href="#glyph-0-0" x="88" y="34.25293"/>
<use xlink:href="#glyph-0-8" x="95" y="34.25293"/>
<use xlink:href="#glyph-0-9" x="100" y="34.25293"/>
<use xlink:href="#glyph-0-1" x="105" y="34.25293"/>
<use xlink:href="#glyph-0-7" x="113" y="34.25293"/>
<use xlink:href="#glyph-0-10" x="122" y="34.25293"/>
</g>
</svg>
